<?xml version='1.0' encoding='iso-8859-1'?>
<svg version="1.1" xmlns="http://www.w3.org/2000/svg" viewBox="0 0 275.622 275.622" xmlns:xlink="http://www.w3.org/1999/xlink" enable-background="new 0 0 275.622 275.622">
  <g>
    <path d="m271.459,73.426c-3.48-1.74-10.441,0-12.181,3.48l-19.106,32.244c-12.72-53.752-60.4-93.149-118.363-93.149-67.865,0.001-121.809,53.945-121.809,121.81s53.944,121.808 121.808,121.808c5.22,0 8.701-3.48 8.701-8.701s-3.48-8.701-8.701-8.701c-57.424,0-104.407-46.983-104.407-104.407s46.984-104.406 104.407-104.406c51.281,7.10543e-15 94.123,37.5 102.737,86.397l-40.092-23.752c-5.22-1.74-10.441,0-12.181,3.48-1.74,5.22 0,10.441 3.48,12.181l53.944,33.062c1.74,1.74 3.48,1.74 5.22,1.74 0,0 1.74,0 1.74-3.48 1.74,0 3.48-1.74 5.22-3.48l1.062-1.74h0.679c0-0.348-0.052-0.679-0.052-1.01l31.375-51.194c1.739-5.221-0.001-10.442-3.481-12.182z"/>
  </g>
</svg>
